/* XPM */
static char *arrow[] = {
/* columns rows colors chars-per-pixel */
"50 47 91 1 ",
"  c #C6C6C5",
". c #C7C7C6",
"X c #C7C7C7",
"o c #C8C8C7",
"O c #C9C9C8",
"+ c #CACACA",
"@ c #CBCBCA",
"# c #CBCBCB",
"$ c #CDCDCC",
"% c #CDCDCD",
"& c #CECECD",
"* c #CECECE",
"= c #CFCFCF",
"- c #D0D0CF",
"; c #D1D1D0",
": c #D1D1D1",
"> c #D2D2D1",
", c #D2D2D2",
"< c #D3D3D2",
"1 c #D3D3D3",
"2 c #D4D4D4",
"3 c #D5D5D4",
"4 c #D5D5D5",
"5 c #D6D6D5",
"6 c #D6D6D6",
"7 c #D7D7D6",
"8 c #D7D7D7",
"9 c #D8D8D7",
"0 c #D8D8D8",
"q c #D9D9D8",
"w c #D9D9D9",
"e c #DADAD9",
"r c #DADADA",
"t c #DBDBDB",
"y c #DCDCDB",
"u c #DCDCDC",
"i c #DDDDDD",
"p c #DEDEDD",
"a c #DEDEDE",
"s c #DFDFDE",
"d c #DFDFDF",
"f c #E0E0DF",
"g c #E0E0E0",
"h c #E1E1E0",
"j c #E1E1E1",
"k c #E2E2E1",
"l c #E2E2E2",
"z c #E3E3E2",
"x c #E3E3E3",
"c c #E4E4E3",
"v c #E4E4E4",
"b c #E5E5E4",
"n c #E5E5E5",
"m c #E6E6E5",
"M c #E6E6E6",
"N c #E7E7E6",
"B c #E7E7E7",
"V c #E8E8E7",
"C c #E8E8E8",
"Z c #E9E9E8",
"A c #E9E9E9",
"S c #EAEAEA",
"D c #EBEBEA",
"F c #EBEBEB",
"G c #ECECEB",
"H c #ECECEC",
"J c #EDEDEC",
"K c #EDEDED",
"L c #EEEEED",
"P c #EEEEEE",
"I c #EFEFEF",
"U c #F0F0EF",
"Y c #F0F0F0",
"T c #F1F1F1",
"R c #F2F2F2",
"E c #F3F3F3",
"W c #F4F4F4",
"Q c #F5F5F5",
"! c #F6F6F6",
"~ c #F7F7F6",
"^ c #F7F7F7",
"/ c #F8F8F8",
"( c #F9F9F9",
") c #FAFAFA",
"_ c #FBFBFB",
"` c #FCFCFB",
"' c #FCFCFC",
"] c #FDFDFD",
"[ c #FEFEFE",
"{ c #FFFFFF",
"} c None",
/* pixels */
"}}}}}}}}}}}}}}}}}}}}}}}}}}}}}}}}}}}}}}}}}}}}}}}}}}",
"}}}}}}}}}}}}}}}}}}}}}}}A(4}}}}}}}}}}}}}}}}}}}}}}}}",
"}}}}}}}}}}}}}}}}}}}}}}[(K[~}}}}}}}}}}}}}}}}}}}}}}}",
"}}}}}}}}}}}}}}}}}}}}}~E}}u[u}}}}}}}}}}}}}}}}}}}}}}",
"}}}}}}}}}}}}}}}}}}}}4[=}}}K(}}}E=}}}}}}}}}}}}}}}}}",
"}}}}}}}}}}}}}}}}}}}}(K}}}}}[w}E[w}}}}}}}}}}}}}}}}}",
"}}}}}}}}}}}}}}}}}}}w[w}4[BX(~E[[}}}}}}}}}}}}}}}}}}",
"}}}}}}}}}}}}}}}}}}}f[}}}([[[[[[A}}}}}}}}}}}}}}}}}}",
"}}}}}}}}}}}}}}}}}}}(K}}}}([[[[[=}}}}}}}}}}}}}}}}}}",
"}}}}}}}}}}}}}}}}}}}[k}}}}}([[[[}}}}}}}}}}}}}}}}}}}",
"}}}}}}}}}}}}}}}}}}4[4}}}}}}~[[B}}}}}}}}}}}}}}}}}}}",
"}}}}}}}}}}}}}}}}}}k[}}}}}}}}E[=}}}}}}}}}}}}}}}}}}}",
"}}}}}}}}}}}}}}}}}}u[}}},4}}}}u}}}}}}}}}}}}}}}}}}}}",
"}}}}}}}}}}}}}}}}}}(B}}A[[[u}}}}}}}}}}}}}}}}}}}}}}}",
"}}}}}}}}}}}}}}}}}}[Kk[[u}K[~=}}}}}}}}}}}}}}}}}}}}}",
"}}}}}}}}}}}}}}}}}}[[[A}}}},E[K}}}}}}}}}}}}}}}}}}}}",
"}}}}}A[A,}}}}}}}oE[E-}}}}}}}u[[k}}}}}}}}}}}}}}}}}}",
"}}}}}4[[[[A,}}}A[[[=}}}}}}}}}}A[(O}}}}}}}}}}}}}}}}",
"}}}}}},([[[[[w}[[[[}}}}}}}}}}}w[[B}}kkw}}}}}}}}}}}",
"}}}}}}}A[[[[[u}[E[[K}}}}}}}}O~[E[B}}K[[[K4}}}}}}}}",
"}}}}}B[[[[[[=}}[wK[[[4}}}}}A[[w}[B}}}}=B([(w}}}}}}",
"}}}u([kX[[[B}}}[w,[OE[E4}k[[u}}}[c}}}}}}}4E[E}}}}}",
"}}}[E}}4[[u}}}}[uO[}}4([([G}}}}}[B}}}}}}}}}u[A}}}}",
"}}4[=}}B[A}}}}}[uO[}}}}K[,}}}}}}[B}}}}}}}}}}k(}}}}",
"}}4[O}}kE}}}}}}[u#[}}}}k[}}}}}}}[B}}}}}}}}}}V(}}}}",
"}}}((=}}}}}}}}}[y~[}}}}k[}}}}}}}(B}}}}}}}}}A[4}}}}",
"}}}}E[A=}}}}}}}[uB[}}}}B[}}}}}}}[B}}}}}}}u([k}}}}}",
"}}}}}4[[[ku}}}}[AX[}}}}k[}}}}}}}[B}}}}kK[[Eo}}}}}}",
"}}}}}}}4A[[[[cB[[[[4}}}w[}}}}}w[[EAK[[[(B=}}}}}}}}",
"}}}}}}}}}}4uB([[[[[[([([[([([[[[[[[KBw}}}}}}}}}}}}",
"}}}}}}}}}}}}}}}}=4[[[[E([A[[[~B=}}}}}}}}}}}}}}}}}}",
"}}}}}}}}}}}}}}}}}}[EK[~E[k[[u}}}}}}}}}}}}}}}}}}}}}",
"}}}}}}}}}}}}}}}}}}(V}4~[[[A}}}}}}}}}}}}}}}}}}}}}}}",
"}}}}}}}}}}}}}}}}}}u~}}}uA-}}}}}}}}}}}}}}}}}}}}}}}}",
"}}}}}}}}}}}}}}}}}}f[}}}}}}}}}}}}}}}}}}}}}}}}}}}}}}",
"}}}}}}}}}}}}}}}}}},[}}}}}}}}V~}}}}}}}}}}}}}}}}}}}}",
"}}}}}}}}}}}}}}}}}}}[u}}}}}}}(B}}}}}}}}}}}}}}}}}}}}",
"}}}}}}}}}}}}}}}}}}}(K}}}}}}}[k}}}}}}}}}}}}}}}}}}}}",
"}}}}}}}}}}}}}}}}}}}B[}}}}}}w[}}}}}}}}}}}}}}}}}}}}}",
"}}}}}}}}}}}}}}}}}}}w[4}}}}}E(}}}}}}}}}}}}}}}}}}}}}",
"}}}}}}}}}}}}}}}}}}}}(K}}}}}[w}}}}}}}}}}}}}}}}}}}}}",
"}}}}}}}}}}}}}}}}}}}}u[}}}}A[}}}}}}}}}}}}}}}}}}}}}}",
"}}}}}}}}}}}}}}}}}}}}}[E}}=[B}}}}}}}}}}}}}}}}}}}}}}",
"}}}}}}}}}}}}}}}}}}}}},[Kw(~}}}}}}}}}}}}}}}}}}}}}}}",
"}}}}}}}}}}}}}}}}}}}}}},~[A}}}}}}}}}}}}}}}}}}}}}}}}",
"}}}}}}}}}}}}}}}}}}}}}}}}}}}}}}}}}}}}}}}}}}}}}}}}}}",
"}}}}}}}}}}}}}}}}}}}}}}}}}}}}}}}}}}}}}}}}}}}}}}}}}}"
};
