/* XPM */
static char *sarrow[] = {
/* columns rows colors chars-per-pixel */
"10 10 2 1 ",
"  c #505050",
". c None",
/* pixels */
"..... ....",
"..........",
"..........",
".. .......",
" ........ ",
" ..... .. ",
"... ......",
"..........",
"..........",
"..... ...."
};
