/* XPM */
static char *sarrow[] = {
/* columns rows colors chars-per-pixel */
"5 5 2 1 ",
"X c #FF0000",
"  c #00FFFF",
/* pixels */
"     ",
"  X  ",
" XXX ",
"  X  ",
"     ",
};
